name D:\school\WTK\thesis\model\3dpredictsim\Results\batch_windlass\Pog_s1_tmt_bCst_d05_k1000_WL10_ig24_pas.mot
datacolumns 128
datarows 4
range 1.05994718 1.09174560
endheader
time	pelvis_tilt	pelvis_list	pelvis_rotation	pelvis_tx	pelvis_ty	pelvis_tz	hip_flexion_l	hip_adduction_l	hip_rotation_l	hip_flexion_r	hip_adduction_r	hip_rotation_r	knee_angle_l	knee_angle_r	ankle_angle_l	ankle_angle_r	subtalar_angle_l	subtalar_angle_r	tmt_angle_l	tmt_angle_r	mtp_angle_l	mtp_angle_r	lumbar_extension	lumbar_bending	lumbar_rotation	arm_flex_l	arm_add_l	arm_rot_l	arm_flex_r	arm_add_r	arm_rot_r	elbow_flex_l	elbow_flex_r	pro_sup_l	pro_sup_r	glut_med1_l/activation	glut_med2_l/activation	glut_med3_l/activation	glut_min1_l/activation	glut_min2_l/activation	glut_min3_l/activation	semimem_l/activation	semiten_l/activation	bifemlh_l/activation	bifemsh_l/activation	sar_l/activation	add_long_l/activation	add_brev_l/activation	add_mag1_l/activation	add_mag2_l/activation	add_mag3_l/activation	tfl_l/activation	pect_l/activation	grac_l/activation	glut_max1_l/activation	glut_max2_l/activation	glut_max3_l/activation	iliacus_l/activation	psoas_l/activation	quad_fem_l/activation	gem_l/activation	peri_l/activation	rect_fem_l/activation	vas_med_l/activation	vas_int_l/activation	vas_lat_l/activation	med_gas_l/activation	lat_gas_l/activation	soleus_l/activation	tib_post_l/activation	flex_dig_l/activation	flex_hal_l/activation	tib_ant_l/activation	per_brev_l/activation	per_long_l/activation	per_tert_l/activation	ext_dig_l/activation	ext_hal_l/activation	ercspn_l/activation	intobl_l/activation	extobl_l/activation	glut_med1_r/activation	glut_med2_r/activation	glut_med3_r/activation	glut_min1_r/activation	glut_min2_r/activation	glut_min3_r/activation	semimem_r/activation	semiten_r/activation	bifemlh_r/activation	bifemsh_r/activation	sar_r/activation	add_long_r/activation	add_brev_r/activation	add_mag1_r/activation	add_mag2_r/activation	add_mag3_r/activation	tfl_r/activation	pect_r/activation	grac_r/activation	glut_max1_r/activation	glut_max2_r/activation	glut_max3_r/activation	iliacus_r/activation	psoas_r/activation	quad_fem_r/activation	gem_r/activation	peri_r/activation	rect_fem_r/activation	vas_med_r/activation	vas_int_r/activation	vas_lat_r/activation	med_gas_r/activation	lat_gas_r/activation	soleus_r/activation	tib_post_r/activation	flex_dig_r/activation	flex_hal_r/activation	tib_ant_r/activation	per_brev_r/activation	per_long_r/activation	per_tert_r/activation	ext_dig_r/activation	ext_hal_r/activation	ercspn_r/activation	intobl_r/activation	extobl_r/activation	
          1.05994718	         -2.90515821	         -1.75578204	          6.57492338	          1.32493398	          0.85432024	         -0.00207347	        -18.36914636	         -2.22195766	          9.45778533	         31.49621498	          3.40901250	         -0.79147938	        -11.37534588	        -20.62705133	         -3.15243726	         -4.35734003	         12.66870085	         -6.85610287	         -2.16900364	         -0.00398199	         27.71258869	          0.33813800	         -0.61226949	          0.03215084	         -1.90153715	          5.55074996	        -13.50497974	         16.31026743	        -11.38730332	        -13.79801505	          7.84232095	         36.04445213	         17.34738720	         86.51662706	         86.51662706	          0.25546566	          0.07612922	          0.05000001	          0.28301799	          0.17414887	          0.08145556	          0.05000042	          0.05000005	          0.05000004	          0.06336397	          0.08596179	          0.15406630	          0.15178198	          0.05000067	          0.05000046	          0.05000010	          0.27391844	          0.13342531	          0.05000051	          0.05000033	          0.05000018	          0.05000012	          0.29498856	          0.49274265	          0.05000003	          0.05000015	          0.05000008	          0.22089235	          0.05326737	          0.05000174	          0.09536939	          0.25807844	          0.33009114	          0.21806225	          0.17094045	          0.19054822	          0.24733385	          0.05000002	          0.08726943	          0.15448293	          0.05000008	          0.05000012	          0.05000008	          0.05000001	          0.05000002	          0.05000003	          0.08999116	          0.05000017	          0.05000004	          0.05883291	          0.05883275	          0.05000050	          0.05000009	          0.05000010	          0.18429092	          0.05000005	          0.05000123	          0.09584560	          0.24099697	          0.13284849	          0.11739545	          0.15338522	          0.05000008	          0.08145113	          0.05000124	          0.05000008	          0.18737470	          0.17005007	          0.05883302	          0.05762435	          0.12420973	          0.06922657	          0.08294884	          0.06443909	          0.21925763	          0.21537044	          0.18201797	          0.06291586	          0.06260498	          0.05787222	          0.05000000	          0.05000006	          0.05000004	          0.53426198	          0.23890149	          0.13269983	          0.49812352	          0.73720184	          0.33657800	          0.05000008	          0.09642853	          0.11064371	
          1.07054665	         -2.88700993	         -1.90304154	          6.85919720	          1.34148513	          0.85298321	         -0.00188519	        -17.93160209	         -2.54964281	          9.20287338	         30.82349267	          3.86817058	         -0.42085407	        -13.73539217	        -20.92579682	         -4.17977718	         -4.60458175	         13.75889221	         -7.78279327	         -2.51991024	         -0.02377522	         28.26908552	          0.46581497	         -0.37516244	          0.31165905	         -1.96411262	          5.23731304	        -13.54950886	         16.57482195	        -12.44923840	        -13.79340671	          7.71350622	         37.03953024	         17.28708290	         86.51662706	         86.51662706	          0.21711128	          0.06469955	          0.05042083	          0.24052705	          0.14800300	          0.06922622	          0.05000114	          0.05000010	          0.05000018	          0.05385081	          0.07305595	          0.23713207	          0.34325564	          0.14977953	          0.05883616	          0.13270008	          0.23279381	          0.11339373	          0.05000038	          0.05000708	          0.05358044	          0.05883274	          0.25070038	          0.44264454	          0.05883280	          0.05883227	          0.05000014	          0.18772863	          0.10250389	          0.13072361	          0.08105128	          0.21933177	          0.28053282	          0.18532341	          0.14527627	          0.16194025	          0.21020034	          0.14445733	          0.07416727	          0.14889570	          0.05000011	          0.18043059	          0.11867548	          0.07302252	          0.05883289	          0.05027307	          0.24369102	          0.05000036	          0.18935534	          0.05000006	          0.05000006	          0.05000011	          0.05000002	          0.05000010	          0.15662238	          0.05000004	          0.05000015	          0.08145583	          0.20481490	          0.32130191	          0.29122791	          0.17162274	          0.05000024	          0.06922293	          0.06400428	          0.17297329	          0.20876328	          0.14942713	          0.05000015	          0.05000014	          0.30812002	          0.05883354	          0.07049532	          0.05883290	          0.31057246	          0.30010537	          0.25506885	          0.05883286	          0.05883279	          0.05000000	          0.13184322	          0.05883456	          0.05000154	          0.46643806	          0.20303395	          0.11277691	          0.42333767	          0.62652191	          0.28604581	          0.05000000	          0.08195121	          0.09403219	
          1.08114612	         -2.86618598	         -2.04834429	          7.11090944	          1.35813139	          0.85156796	         -0.00170762	        -17.36902024	         -2.84585736	          8.94761914	         29.93767047	          4.31192078	         -0.01656204	        -16.30442532	        -21.39019633	         -5.22619318	         -4.46677907	         14.74607683	         -8.75938435	         -2.77629917	         -0.18624114	         28.13878306	          0.42829308	         -0.13101143	          0.59378852	         -2.01472335	          4.87566734	        -13.59902364	         16.78358399	        -13.45671128	        -13.79156182	          7.67982821	         37.99954202	         17.16518616	         86.51662706	         86.51662706	          0.20937330	          0.05498587	          0.05000000	          0.20441565	          0.12578255	          0.05883294	          0.05000229	          0.05000019	          0.05000012	          0.05000009	          0.06208780	          0.22078949	          0.34180544	          0.12729239	          0.05000305	          0.11277720	          0.27889594	          0.10498201	          0.05000023	          0.05000023	          0.05000014	          0.05000010	          0.21306142	          0.39784099	          0.05000001	          0.05000008	          0.05000002	          0.15954394	          0.08711445	          0.11109739	          0.06888264	          0.18640233	          0.23841495	          0.15749983	          0.12346519	          0.13762736	          0.17864190	          0.21271392	          0.12650948	          0.12654181	          0.28927165	          0.24826382	          0.14018255	          0.10199373	          0.05000000	          0.05000002	          0.38113812	          0.35151407	          0.47473123	          0.23878100	          0.05000467	          0.27413539	          0.08402931	          0.11729095	          0.13438682	          0.06922602	          0.05000017	          0.06922646	          0.17406499	          0.27306326	          0.24750515	          0.18757563	          0.05000005	          0.05883273	          0.11062733	          0.29772347	          0.26552380	          0.18498890	          0.05000006	          0.05000004	          0.26186040	          0.05000077	          0.20597338	          0.05000001	          0.29438491	          0.30323338	          0.25832736	          0.05000001	          0.05000003	          0.05156943	          0.14953596	          0.05000149	          0.05000036	          0.58895842	          0.17255140	          0.09584512	          0.35977984	          0.67284841	          0.43634533	          0.05060748	          0.07072277	          0.07991464	
          1.09174560	         -2.84595173	         -2.19460827	          7.32412128	          1.37454145	          0.85024088	         -0.00150549	        -16.63900118	         -3.11440437	          8.69255862	         28.99655990	          4.76226974	          0.37646393	        -19.10968361	        -21.81027784	         -6.16145814	         -3.99696975	         15.61689894	         -9.76923020	         -2.82922009	          0.08783061	         26.82730551	          0.45081146	          0.08975554	          0.87835784	         -2.05331681	          4.52839447	        -13.64301774	         16.95553080	        -14.33239250	        -13.78726951	          7.76436776	         38.86239422	         16.93568791	         86.51662706	         86.51662706	          0.17793900	          0.05000005	          0.05000003	          0.17372569	          0.10689818	          0.05000017	          0.05847615	          0.05000011	          0.05000021	          0.05000003	          0.05276632	          0.24799150	          0.29048894	          0.10818151	          0.05000285	          0.09584578	          0.30237289	          0.08922066	          0.05000023	          0.05000093	          0.05000071	          0.05000042	          0.18107340	          0.34755679	          0.05000004	          0.05000033	          0.05000007	          0.13559083	          0.09219910	          0.09584919	          0.07598441	          0.15841676	          0.20262046	          0.13385355	          0.12773648	          0.11696503	          0.16431447	          0.19566487	          0.10751596	          0.10754343	          0.24584178	          0.26691186	          0.11913624	          0.12607426	          0.05000000	          0.05000001	          0.46201015	          0.53676788	          0.68448962	          0.21214686	          0.33027563	          0.41259020	          0.07141356	          0.09968148	          0.11421063	          0.05883286	          0.05000006	          0.05883314	          0.14793171	          0.23206692	          0.21114467	          0.18463365	          0.05000007	          0.05000065	          0.09401835	          0.38996836	          0.30765806	          0.20460404	          0.05000001	          0.05000001	          0.22254600	          0.05000045	          0.18372915	          0.05000001	          0.40673030	          0.40687119	          0.34481664	          0.05000000	          0.05000000	          0.05000000	          0.21348086	          0.05000266	          0.05000021	          0.59710586	          0.14664535	          0.08145539	          0.30576424	          0.57773670	          0.42977505	          0.07544326	          0.06010479	          0.06791664	
